# xmcd CD database file
#
# Track frame offsets:
#	150
#	19897
#	43062
#	62705
#	85345
#	99707
#	113827
#	138405
#	161865
#	180232
#	202305
#	224012
#
# Disc length: 3211 seconds
#
# Revision: 0
# Processed by: cddbd v1.5.1PL0 Copyright (c) Steve Scherf et al.
# Submitted via: CDex 1.51
#
DISCID=b50c890c
DTITLE=Various Artist - ROSSA
DYEAR=2004
DGENRE=Jazz
TTITLE0=Taiyou no Kakera/orangepekoe
TTITLE1=Aoi Tsuki/wyolica
TTITLE2='Cause We've Been Together/Ann Sally
TTITLE3=Ipanema no Musume/Lisa Ono
TTITLE4=One Note Samba/noon
TTITLE5=OOsama ga Yattekuru/CHORO CLUB
TTITLE6=Livin High Part 2/Jazztronik
TTITLE7=Brazilian Rhyme/Satoru Shioya feat. Harumi Tsuyuzaki
TTITLE8=Koiha.../beret
TTITLE9=Karioka kara no Tegami/Forma De Agua
TTITLE10=8gatsu no Kirin(album Version)/BE THE VOICE
TTITLE11=DOn't Know Why/Miyuki Hatakeyama
EXTD=YEAR: 2004
EXTT0=
EXTT1=
EXTT2=
EXTT3=
EXTT4=
EXTT5=
EXTT6=
EXTT7=
EXTT8=
EXTT9=
EXTT10=
EXTT11=
PLAYORDER=
